<svg id="Ebene_1" data-name="Ebene 1" xmlns="http://www.w3.org/2000/svg" viewBox="0 0 161.33 44"><defs><style>.cls-1,.cls-2{fill-rule:evenodd;}.cls-2{fill:#1e7539;}.cls-3{fill:#6e6e6e;}</style></defs><title>Straumann_Logo_RGB_44</title><path class="cls-1" d="M152.18,11.29h-4.6v13h4.6V17.56c0-1.62.52-3,2.4-3,2.3,0,2.09,2.19,2.09,3.45V24.3h4.65v-8c0-3.19-1.41-5.38-4.91-5.38A4.48,4.48,0,0,0,152.24,13h-.05V11.29Z"/><path class="cls-1" d="M136.4,11.29h-4.6v13h4.6V17.56c0-1.62.52-3,2.41-3,2.29,0,2.09,2.19,2.09,3.45V24.3h4.64v-8c0-3.19-1.41-5.38-4.9-5.38A4.49,4.49,0,0,0,136.46,13h-.06V11.29Z"/><path class="cls-1" d="M129.92,11.29h-4.6v1.26a5.53,5.53,0,0,0-4-1.67c-3.87,0-6.53,3.19-6.53,6.95a6.7,6.7,0,0,0,6.58,7,4.55,4.55,0,0,0,3.92-1.88h0V24.3h4.6v-13Zm-7.31,3.61a2.81,2.81,0,0,1,3,2.93,3,3,0,0,1-6,0,2.81,2.81,0,0,1,3-2.93Z"/><path class="cls-1" d="M96.37,11.29h-4.6v13h4.6V18.08c0-1.41,0-3.66,2-3.66s2.09,2.25,2.09,3.66V24.3h4.6V18.08c0-1.51.1-3.55,2.24-3.55,1.94,0,1.88,2.24,1.88,3.55V24.3h4.6V16c0-3-1.1-5.17-4.44-5.17a4.87,4.87,0,0,0-4.39,2.5,4.79,4.79,0,0,0-4.44-2.5,4.94,4.94,0,0,0-4.13,2h0V11.29Z"/><path class="cls-1" d="M76.09,11.29v7.84c0,4.29,3,5.65,6.95,5.65s7-1.36,7-5.65V11.29H85.34v7c0,1.67-.42,2.82-2.3,2.82s-2.3-1.15-2.3-2.82v-7Z"/><path class="cls-1" d="M74,11.29H69.4v1.26a5.53,5.53,0,0,0-4-1.67c-3.86,0-6.53,3.19-6.53,6.95a6.7,6.7,0,0,0,6.58,7,4.54,4.54,0,0,0,3.92-1.88h.05V24.3H74v-13Zm-7.43,3.61a2.82,2.82,0,0,1,3,2.93,3,3,0,0,1-6,0,2.81,2.81,0,0,1,3-2.93Z"/><path class="cls-1" d="M53.88,11.29h-4.6v13h4.6V19.07c0-2.24.62-3.92,3.19-3.92a3.62,3.62,0,0,1,2,.42V11.13h-.89a4.46,4.46,0,0,0-4.23,2.3h-.05V11.29Z"/><polygon class="cls-1" points="46.41 15.11 49.02 15.11 49.02 11.29 46.41 11.29 46.41 7.37 41.81 7.37 41.81 11.29 40.3 11.29 40.3 15.11 41.81 15.11 41.81 24.3 46.41 24.3 46.41 15.11 46.41 15.11 46.41 15.11"/><path class="cls-1" d="M39.52,11.71a10.15,10.15,0,0,0-4.29-.84c-2.87,0-5.75,1.41-5.75,4.59,0,2.35,1.47,3.08,2.87,3.45s2.93.41,2.93,1.46c0,.68-.89,1-1.46,1A7.3,7.3,0,0,1,30.16,20l-1.68,3.24a9.86,9.86,0,0,0,5.28,1.52c3,0,6.11-1.41,6.11-4.86,0-2.4-1.62-3.45-3.76-3.86-.63-.11-2.09-.26-2.09-1.15,0-.62.94-.89,1.46-.89a5.78,5.78,0,0,1,2.46.62l1.57-2.92Z"/><path class="cls-2" d="M24.77,0C18.09,4.44,11.35,9,4.6,13.49c-3,2.3-2.87,5.75-.83,8.67l21-14.06V0Z"/><path class="cls-2" d="M0,35c6.69-4.44,13.44-9,20.18-13.49,3-2.29,2.87-5.74.84-8.67L0,26.86V35Z"/><path class="cls-3" d="M69.76,41.15A6.47,6.47,0,0,1,68.47,41v-1.6H69a9.71,9.71,0,0,1,.15,1,3.72,3.72,0,0,0,.72.07c.84,0,1.42-.38,1.42-1,0-1.37-2.91-.53-2.91-2.56,0-1,.79-1.68,2.24-1.68a5.41,5.41,0,0,1,1.24.16v1.53h-.51a6.69,6.69,0,0,1-.15-1,4.3,4.3,0,0,0-.69-.07c-.84,0-1.27.36-1.27.92,0,1.39,2.91.6,2.91,2.53,0,1-.9,1.82-2.39,1.82Z"/><path class="cls-3" d="M74.35,34.29a.59.59,0,0,1-.6-.59.59.59,0,0,1,1.19,0,.58.58,0,0,1-.59.59ZM72.91,41v-.5a6.52,6.52,0,0,1,1-.15V36c-.27,0-.67-.09-1-.12V35.4a12.07,12.07,0,0,1,1.87-.08V40.4a6.2,6.2,0,0,1,1,.15V41Z"/><path class="cls-3" d="M84.58,37.35c0-.87-.21-1.43-1-1.43s-1.72.91-1.72,2.39V40.4a4.89,4.89,0,0,1,1,.15V41H81V37.34c0-.78-.15-1.41-1-1.41s-1.71,1-1.71,2.39V40.4a4.93,4.93,0,0,1,1,.15V41H76.37v-.5a6.44,6.44,0,0,1,1-.15V36c-.28,0-.67-.09-1-.12V35.4a11.93,11.93,0,0,1,1.85-.08,9.06,9.06,0,0,1-.09,1.27h0a2.11,2.11,0,0,1,2-1.39,1.42,1.42,0,0,1,1.59,1.37,2.16,2.16,0,0,1,2-1.37c1.07,0,1.68.58,1.68,1.87V40.4a6.36,6.36,0,0,1,1,.15V41H84.58V37.35Z"/><path class="cls-3" d="M90.1,35.93c-1.15,0-1.7,1.34-1.7,2.35v2a3.59,3.59,0,0,0,1.12.15c1.18,0,2-.71,2-2.44,0-1.29-.43-2.06-1.37-2.06Zm-.64,5.18A5.43,5.43,0,0,1,88.4,41v2.22a6,6,0,0,1,1,.16v.5H86.53v-.5a6.06,6.06,0,0,1,1-.16V36c-.28,0-.67-.09-1-.12V35.4a12.11,12.11,0,0,1,1.85-.08,7.18,7.18,0,0,1-.09,1.24h0a2,2,0,0,1,2-1.36c1.33,0,2.1.93,2.1,2.71,0,2-1.12,3.19-2.92,3.19Z"/><path class="cls-3" d="M95.77,40.55V41H92.93v-.5a6.47,6.47,0,0,1,1-.15V33.33c-.28,0-.67-.09-1-.11v-.5a12.44,12.44,0,0,1,1.85-.08V40.4a6.41,6.41,0,0,1,1,.15Z"/><path class="cls-3" d="M101.23,36l-2.1,5.7C98.49,43.41,98,44,96.7,44a4.6,4.6,0,0,1-.76-.07l.09-.78a2.6,2.6,0,0,0,.73.11c.69,0,1-.33,1.5-1.54l.27-.68h-.2L96.48,36a5.34,5.34,0,0,1-.77-.15v-.5h2.56v.5a4.19,4.19,0,0,1-.83.15l1,2.81c.18.53.31.94.44,1.38h0c.11-.36.33-1,.56-1.71l.86-2.49a4.11,4.11,0,0,1-.82-.15v-.5H102v.5a5.36,5.36,0,0,1-.77.15Z"/><path class="cls-3" d="M109.09,36.07a4.82,4.82,0,0,0-1.13-.14c-1.18,0-2,.71-2,2.44,0,1.29.44,2.06,1.38,2.06,1.14,0,1.7-1.33,1.7-2.35v-2Zm0,5a7.49,7.49,0,0,1,.11-1.24h0a2.07,2.07,0,0,1-2,1.36c-1.41,0-2.1-1-2.1-2.7,0-2,1.15-3.19,2.93-3.19.33,0,.67,0,1.06.06v-2c-.27,0-.66-.09-1-.11v-.5a12.42,12.42,0,0,1,1.85-.08v7.71c.28,0,.67.09,1,.12V41a11.93,11.93,0,0,1-1.84.08Z"/><path class="cls-3" d="M113.85,35.88c-.9,0-1.75.68-1.75,2.21s.63,2.27,1.75,2.27c.9,0,1.71-.69,1.71-2.27,0-1.38-.58-2.21-1.71-2.21Zm-.13,5.21c-1.53,0-2.52-.93-2.52-2.93a2.75,2.75,0,0,1,2.73-3c1.39,0,2.53.77,2.53,2.87a2.79,2.79,0,0,1-2.74,3.06Z"/><path class="cls-3" d="M118.43,34.23a.58.58,0,0,1-.6-.59.59.59,0,0,1,1.19,0,.58.58,0,0,1-.59.59ZM117,41v-.49a6.59,6.59,0,0,1,1-.15V36c-.27,0-.67-.09-1-.12v-.5a12.35,12.35,0,0,1,1.87-.08v5.07a6.12,6.12,0,0,1,1,.15V41Z"/><path class="cls-3" d="M125.13,37.28c0-.9-.24-1.41-1.07-1.41-1,0-1.75,1-1.75,2.37v2.11a5.27,5.27,0,0,1,1,.15V41h-2.82v-.49a6.51,6.51,0,0,1,1-.15V36c-.28,0-.67-.09-1-.12v-.5a12.25,12.25,0,0,1,1.86-.08,9.31,9.31,0,0,1-.09,1.27h0a2.14,2.14,0,0,1,2.06-1.39c1.31,0,1.71.83,1.71,1.84v3.35a5.91,5.91,0,0,1,1,.15V41h-1.84V37.28Z"/><path class="cls-3" d="M130.11,35.83a1.43,1.43,0,0,0-1.58,1.45,1.35,1.35,0,0,0,1.53,1.43,1.37,1.37,0,0,0,1.56-1.43,1.36,1.36,0,0,0-1.51-1.45Zm.59,5.19h-1.56a1.29,1.29,0,0,0-.79,1.15c0,.73.7,1.13,1.66,1.13,1.26,0,2-.53,2-1.33,0-.57-.42-.93-1.3-.93Zm-.84,3c-1.45,0-2.38-.6-2.38-1.68a1.71,1.71,0,0,1,1-1.52.9.9,0,0,1-.58-.83,1.06,1.06,0,0,1,.62-.94,1.83,1.83,0,0,1-.84-1.66,2.25,2.25,0,0,1,2.49-2.2,3.54,3.54,0,0,1,.86.1H133v.68h-1a1.54,1.54,0,0,1,.55,1.26c0,1.21-.84,2.15-2.5,2.15a2.91,2.91,0,0,1-.8-.09.58.58,0,0,0-.4.53c0,.34.32.48,1,.48h1.12c1.24,0,1.94.61,1.94,1.57,0,1.22-1.26,2.14-3,2.14Z"/><path class="cls-3" d="M144.47,37.29c0-.87-.21-1.43-1-1.43s-1.71.91-1.71,2.39v2.08a5.27,5.27,0,0,1,1,.15V41h-1.82V37.28c0-.78-.15-1.41-1-1.41s-1.72,1-1.72,2.39v2.08a5.27,5.27,0,0,1,1,.15V41h-2.82v-.49a6.5,6.5,0,0,1,1-.15V36c-.27,0-.66-.09-1-.12v-.5a12.23,12.23,0,0,1,1.85-.08,9.12,9.12,0,0,1-.09,1.27h0a2.11,2.11,0,0,1,2-1.39,1.42,1.42,0,0,1,1.59,1.37,2.15,2.15,0,0,1,2-1.37c1.07,0,1.68.57,1.68,1.86v3.32a6.32,6.32,0,0,1,1,.15V41h-1.84V37.29Z"/><path class="cls-3" d="M149.15,35.88c-.9,0-1.75.68-1.75,2.21s.63,2.27,1.75,2.27c.9,0,1.72-.69,1.72-2.27,0-1.38-.58-2.21-1.72-2.21ZM149,41.09c-1.53,0-2.52-.93-2.52-2.93a2.75,2.75,0,0,1,2.73-3c1.39,0,2.53.77,2.53,2.87A2.79,2.79,0,0,1,149,41.09Z"/><path class="cls-3" d="M156,36c-1.38-.21-2,.76-2,2.68v1.65a6.45,6.45,0,0,1,1,.15V41h-2.86v-.5a6.48,6.48,0,0,1,1-.15V36c-.28,0-.67-.09-1-.12v-.5a12.25,12.25,0,0,1,1.85-.08,8.26,8.26,0,0,1-.14,1.44h0a1.9,1.9,0,0,1,2.14-1.56l0,.85Z"/><path class="cls-3" d="M159,35.84a1.56,1.56,0,0,0-1.52,1.48h2.9A1.33,1.33,0,0,0,159,35.84ZM161.23,38h-3.82c-.06,1.72.62,2.43,1.9,2.43A3.88,3.88,0,0,0,161,40l.08.74a5,5,0,0,1-1.89.34c-1.73,0-2.65-.93-2.65-2.93,0-1.72.92-3,2.51-3a2.12,2.12,0,0,1,2.23,2.36,2.82,2.82,0,0,1,0,.43Z"/></svg>